<svg width="35" height="35" viewBox="0 0 35 35" fill="none" xmlns="http://www.w3.org/2000/svg">
<rect width="35" height="35" rx="3" fill="#F0F0F0"/>
<g clip-path="url(#clip0)">
<path d="M13.2864 18.737C14.0465 18.7345 14.8066 18.7356 15.5668 18.7356C15.6338 18.7356 15.7008 18.7356 15.7737 18.7356C15.7737 21.5433 15.7737 24.33 15.7737 27.1241H19.1781C19.1781 24.3249 19.1781 21.5354 19.1781 18.7284C20.376 18.7284 21.5597 18.7284 22.7503 18.7284C22.7503 17.4719 22.7503 16.2334 22.7503 14.973C21.5514 14.973 20.3635 14.973 19.1705 14.973C19.1705 14.4023 19.147 13.8523 19.1784 13.3056C19.2009 12.9151 19.4763 12.4748 20.0322 12.4966C20.8718 12.5299 21.7135 12.5056 22.5541 12.5049C22.6204 12.5049 22.6868 12.4973 22.7462 12.4938C22.7462 11.2319 22.7462 9.99374 22.7462 8.75412C21.6713 8.75412 20.612 8.73764 19.553 8.76129C19.0613 8.77239 18.5945 8.94866 18.1612 9.19229C17.6561 9.4764 17.2238 9.85473 16.8645 10.323C16.2892 11.0736 15.9178 11.9202 15.828 12.8732C15.7713 13.4769 15.7958 14.0884 15.7844 14.6968C15.7827 14.7842 15.7841 14.872 15.7841 14.9798C14.8899 14.9798 14.0182 14.9798 13.1433 14.9798C13.1357 15.0217 13.1281 15.0443 13.1278 15.0672C13.1271 16.2438 13.1285 17.42 13.125 18.5962C13.1247 18.727 13.1872 18.7373 13.2864 18.737Z" fill="#0063E4"/>
</g>
<defs>
<clipPath id="clip0">
<rect x="13.125" y="8.75" width="9.625" height="18.375" fill="white"/>
</clipPath>
</defs>
</svg>
