<svg width="35" height="35" viewBox="0 0 35 35" fill="none" xmlns="http://www.w3.org/2000/svg">
<rect width="35" height="35" rx="3" fill="#F0F0F0"/>
<g clip-path="url(#clip0)">
<path d="M10.8228 14.1267C11.2126 13.3893 11.6987 12.7197 12.3104 12.1434C13.5049 11.0175 14.9182 10.328 16.5644 10.0811C17.6856 9.91269 18.7729 10.0142 19.8573 10.3153C20.8937 10.6027 21.7946 11.1166 22.6092 11.794C22.7707 11.9282 22.7672 11.9882 22.6042 12.1409C21.9646 12.7407 21.3489 13.3649 20.7302 13.9851C20.6415 14.074 20.5971 14.0852 20.4929 13.9988C19.438 13.1214 18.2295 12.8056 16.8645 13.0584C15.4482 13.3205 14.4232 14.0974 13.7138 15.3072C13.5732 15.5468 13.4839 15.8074 13.3558 16.0509C12.5113 15.4096 11.6668 14.7679 10.8228 14.1267Z" fill="#E94436"/>
<path d="M13.3567 18.9448C13.7575 19.9989 14.4186 20.8608 15.4166 21.4244C16.4311 21.9968 17.5264 22.1823 18.692 21.9339C19.2713 21.8104 19.8033 21.5952 20.3073 21.3009C20.587 21.6011 20.9459 21.806 21.2635 22.0598C21.7431 22.4429 22.2366 22.8094 22.7247 23.1827C21.6344 24.1895 20.3177 24.7243 18.853 24.9181C17.5708 25.0874 16.2975 25.005 15.0776 24.5613C13.6378 24.0377 12.4344 23.1881 11.5201 21.9617C11.2613 21.6147 11.03 21.2556 10.8301 20.8749C11.6726 20.2317 12.5146 19.5885 13.3567 18.9448Z" fill="#35A853"/>
<path d="M22.7253 23.1831C22.2378 22.8098 21.7437 22.4433 21.2641 22.0602C20.9461 21.8064 20.5876 21.601 20.3079 21.3013C20.7551 20.9607 21.1554 20.5786 21.4182 20.0788C21.5543 19.8202 21.6859 19.5591 21.7392 19.2673C21.7936 18.9681 21.7981 18.9691 21.477 18.9691C20.2975 18.9691 19.1174 18.9628 17.9379 18.975C17.7155 18.9774 17.6627 18.9208 17.6662 18.707C17.6801 17.9023 17.6756 17.0971 17.6682 16.2919C17.6667 16.1352 17.7086 16.0859 17.8741 16.0864C20.1419 16.0918 22.4098 16.0908 24.6776 16.0874C24.8187 16.0874 24.886 16.1211 24.9039 16.2699C25.0595 17.5319 25.048 18.789 24.6876 20.0154C24.3291 21.2374 23.7065 22.3208 22.7253 23.1831Z" fill="#4285F3"/>
<path d="M13.3567 18.9446C12.5147 19.5878 11.6722 20.2315 10.8302 20.8747C10.2499 19.7498 9.9642 18.5532 10.0036 17.2971C10.0355 16.2796 10.2519 15.2928 10.7165 14.37C10.7564 14.2909 10.7878 14.2075 10.8227 14.126C11.6667 14.7677 12.5112 15.409 13.3553 16.0502C13.2436 16.4733 13.1449 16.8964 13.1354 17.339C13.1239 17.8881 13.1972 18.421 13.3567 18.9446Z" fill="#FABB06"/>
</g>
<defs>
<clipPath id="clip0">
<rect x="10" y="10" width="15" height="15" fill="white"/>
</clipPath>
</defs>
</svg>
